<svg xmlns="http://www.w3.org/2000/svg" width="53.335" height="34.713" viewBox="0 0 53.335 34.713">
  <path id="Icon_ionic-ios-return-right" data-name="Icon ionic-ios-return-right" d="M56.945,29.784l-8.28-10.108a1.774,1.774,0,0,0-1.375-.7,1.744,1.744,0,0,0-1.375.7,2.776,2.776,0,0,0,0,3.369l.014.017,5.71,6.823h-36.3a6.343,6.343,0,0,1-4.9-2.5A9.473,9.473,0,0,1,8.39,21.378V13.21a2.2,2.2,0,0,0-1.945-2.382A2.2,2.2,0,0,0,4.5,13.21v8.168a14.781,14.781,0,0,0,3.181,9.376,9.86,9.86,0,0,0,7.655,3.9H51.694l-5.515,6.84a2.66,2.66,0,0,0-.57,1.685,2.615,2.615,0,0,0,.57,1.685l.014.017a1.829,1.829,0,0,0,1.361.664,1.7,1.7,0,0,0,1.375-.7l8-9.767a4.226,4.226,0,0,0,.9-2.672A4,4,0,0,0,56.945,29.784Z" transform="translate(57.835 45.541) rotate(180)" fill="#0073bd"/>
</svg>
