<svg xmlns="http://www.w3.org/2000/svg" width="22.399" height="17.831" viewBox="0 0 22.399 17.831">
  <path id="Icon_awesome-home" data-name="Icon awesome-home" d="M10.9,6.879,3.732,12.924v6.524a.63.63,0,0,0,.622.637l4.357-.012a.63.63,0,0,0,.619-.637v-3.81a.63.63,0,0,1,.622-.637h2.489a.63.63,0,0,1,.622.637v3.807a.645.645,0,0,0,.182.452.615.615,0,0,0,.441.187l4.356.012a.63.63,0,0,0,.622-.637V12.92L11.5,6.879A.465.465,0,0,0,10.9,6.879Zm11.324,4.108L18.975,8.245V2.731a.472.472,0,0,0-.467-.478H16.331a.472.472,0,0,0-.467.478v2.89L12.383,2.689a1.833,1.833,0,0,0-2.372,0l-9.843,8.3a.485.485,0,0,0-.062.673L1.1,12.895a.459.459,0,0,0,.658.065L10.9,5.247a.465.465,0,0,1,.595,0l9.147,7.712A.459.459,0,0,0,21.3,12.9l.992-1.234a.485.485,0,0,0-.066-.674Z" transform="translate(0.001 -2.254)" fill="#0073bd"/>
</svg>
